<?xml version="1.0" encoding="UTF-8"?>
<svg id="b" data-name="Layer 2" xmlns="http://www.w3.org/2000/svg" width="246.302" height="40.633" viewBox="0 0 246.302 40.633">
  <g id="c" data-name="Layer 1">
    <g>
      <polygon points="196.47 40.633 0 40.633 0 .548 196.513 .548 196.47 40.633" fill="#5c5c5c" fill-rule="evenodd"/>
      <path d="M240.869,14.077c2.29,5.412,.936,12.65-3.282,16.876-2.037,1.729-4.232,3.548-7.059,2.98-1.542-.362-2.65-1.438-3.037-2.896-.331-1.271-.248-2.492-.081-3.806l11.471-.021-.312-.392c-5.79-6.832-10.384-14.545-13.459-22.669-3.304,8.227-7.941,16.356-13.459,23.104l11.244-.022c-.066,1.505,.285,3.341-.41,4.633-.7,1.417-2.34,2.12-3.857,2.151-4.535-.423-7.55-4.414-9.274-8.19-2.009-4.639-1.27-11.008,1.886-14.974,4.392-5.834,12.145-8.193,19.369-5.958,4.405,1.383,8.324,4.816,10.259,9.184m3.2-3.144c3.767,6.696,2.577,15.752-2.133,21.511-5.464,6.524-15.023,9.378-23.472,6.701-7.96-2.306-14.113-9.669-14.526-18.118-.489-7.886,4.167-15.143,10.914-18.615,6.585-3.518,15.939-3.187,22.24,.994,2.806,1.776,5.287,4.567,6.976,7.528" fill="#555" fill-rule="evenodd"/>
      <path d="M71.974,11.346c.338,.695,.514,1.451,.492,2.38l-21.717,.007c-.663,0-1.702,.381-2.083,1.252-.473,1.086,.072,2.334,1.149,2.813,.428,.191,1.189,.166,1.189,.166h15.799c2.827,.2,5.346,2.031,6.319,5.046,.845,2.624,.41,4.807-1.314,6.95-1.99,2.474-4.713,2.505-7.713,2.5l-17.482-.019c-1.896-.003-3.494-1.884-3.763-3.819l-.012-.979,23.078,.022c.772,.001,1.762-1.073,1.789-2.174,.029-1.188-.785-2.317-1.964-2.317h-16.623c-2.875,.001-5.806-2.721-6.28-6.121-.382-2.752,.516-4.833,2.634-6.61,1.599-1.341,2.815-1.724,5.051-1.727l15.377-.019c2.375-.044,4.961,.369,6.072,2.647" fill="#fff" fill-rule="evenodd"/>
      <path d="M107.919,8.802c3.717,.004,6.729,3.856,6.628,7.886-.097,3.889-3.462,7.482-6.546,7.482h-12.966c-1.898-.235-3.354-1.621-4.104-3.227-.256-.628-.269-1.51-.342-2.165l.672,.013h15.674c.676,0,1.321-.622,1.64-1.405,.294-.717,.275-1.299-.081-1.986-.394-.761-1.107-1.241-1.807-1.241h-17.48l-.163,.165v15.603c0,1.451-1.257,2.519-2.741,2.492-1.298-.024-2.511-1.086-2.511-2.465V13.249c0-1.38,.52-2.195,1.495-3.125,1.019-.975,2.362-1.342,3.347-1.342l19.286,.021Z" fill="#fff" fill-rule="evenodd"/>
      <path d="M136.06,15.1c1.723,2.414,3.618,4.741,5.261,7.25h-11.595l5.768-7.281s.157-.245,.306-.232c.143,.013,.26,.263,.26,.263m4.741-2.706c2.993,4.192,9.031,12.058,12.092,16.491,.385,1.004-.066,2.08-.573,2.896-.826,.776-2.18,.942-3.119,.497-1.482-1.333-2.506-2.987-3.694-4.469l-19.941-.043-2.358,3.222c-.744,1.017-1.689,1.714-3.141,1.454-.756-.154-1.473-.795-1.723-1.489-.387-.898-.345-1.746,.163-2.565l12.639-16.876c1.06-1.599,2.205-2.741,4.185-2.73,3.113,.04,3.325,.829,5.471,3.612" fill="#fff" fill-rule="evenodd"/>
      <path d="M185.637,8.802c2.741,.003,5.308,2.098,6.337,5.115,1.104,3.235,.085,6.1-2.397,8.432-.554,.519-1.56,1.158-1.56,1.158l3.426,4.946c.313,.451,.415,1.351,.122,2.127-.27,.722-.631,1.145-1.333,1.448-.955,.415-2.217,.031-2.624-.473,0,0-3.276-4.023-5.09-6.31-.319-.338-.484-.648-.82-.992l-8.736,.043c-2.167,.01-4.723-2.599-4.723-4.679v-.804l16.266-.021c.609,0,1.291-.575,1.624-1.323,.301-.678,.295-1.223,0-1.904-.354-.811-1.158-1.388-1.787-1.386l-17.694,.051-.051,.176v15.894c0,1.058-1.449,2.421-2.868,2.284-1.311-.125-2.386-1.47-2.384-2.406l.019-16.847c.003-1.755,.509-2.439,1.608-3.403,1.072-.941,2.04-1.149,3.46-1.148l19.205,.021Z" fill="#fff" fill-rule="evenodd"/>
    </g>
  </g>
</svg>