<?xml version="1.0" encoding="UTF-8"?>
<svg id="b" data-name="Layer 2" xmlns="http://www.w3.org/2000/svg" width="246.63" height="66.494" viewBox="0 0 246.63 66.494">
  <g id="c" data-name="Layer 2">
    <g>
      <path d="M242.077,65.936v-4.59h.951l1.128,3.25c.104,.302,.181,.529,.228,.679,.054-.166,.139-.412,.254-.736l1.142-3.193h.85v4.59h-.609v-3.842l-1.386,3.842h-.569l-1.379-3.907v3.907h-.609Zm-2.836,0v-4.048h-1.572v-.542h3.781v.542h-1.578v4.048h-.631Zm-41.4-32.011c-.003-1.22,.712-1.861,2.129-1.856h3.079c1.48,.005,2.701,.709,3.7,1.788l18.808,19.723c.614,.636,1.411,.749,1.405,.017l-.002-19.963c.004-.973,.509-1.556,1.747-1.569l3.032,.008c.928-.01,1.74,.401,1.73,1.526l.011,30.331c-.016,1.751-.151,2.102-1.705,2.101h-2.844c-1.213-.006-1.855-.238-2.689-1.115l-20.07-21.129c-.855-.927-1.749-.93-1.755,.266l.008,20.495c-.008,.936-.435,1.473-1.559,1.484h-3.477c-1.011,0-1.544-.456-1.55-1.415l.002-30.691h0Zm-17.778-1.852h4.792c.623,0,1.133,.515,1.133,1.144v31.669c0,.629-.51,1.144-1.133,1.144h-4.792c-.623,0-1.133-.515-1.133-1.144v-31.669c0-.629,.51-1.144,1.133-1.144h0Zm-52.384,2.332c0-1.569,.788-2.349,2.364-2.34h4.076c2.193,.009,2.528,.633,3.752,2.838l8.89,16.49c.467,.84,1.04,.845,1.529,0l9.657-17.005c.716-1.291,1.477-2.312,2.492-2.324h4.83c1.403,.002,2.08,.199,2.09,2.119l-.009,30.009c-.004,1.446-.46,1.832-1.713,1.84h-3.46c-1.303-.004-1.746-.664-1.747-1.844v-21.97s-11.876,21.966-11.876,21.966c-.814,1.505-1.537,1.485-2.351,.004l-12.08-22.283,.005,22.283c-.029,1.229-.546,1.835-1.593,1.835h-2.989c-1.14-.01-1.869-.503-1.867-1.861v-29.756h0Zm-35.089,5.077c.008-1.315,.869-1.922,2.449-1.929l9.173-.009c3.816-.003,7.666,1.494,7.674,4.974,.022,2.976-2.529,4.707-7.211,4.682l-9.61,.017c-1.435,.013-2.477-.622-2.466-1.93l-.009-5.805h0Zm-7.186-5.291c-.003-1.3,.868-2.126,2.433-2.118l17.592-.017c7.728,0,13.861,2.464,13.892,10.102-.033,5.032-2.343,7.544-7.4,9.124-1.256,.388-1.485,1.166-.685,2.332l7.743,11.071c.667,.951,.317,1.339-.728,1.342l-4.719-.004c-1.305,.008-1.811-.135-2.467-1.038l-7.982-10.89c-.917-1.315-2.172-1.867-3.906-1.861l-6.441,.009-.128,11.945c-.006,1.22-.526,1.835-1.559,1.844h-3.948c-1.284,0-1.692-.708-1.696-1.852v-29.988h0Zm-25.482,8.129c.306-.675,.706-.706,1.049,0l6.115,12.597c.449,.925,.14,1.435-1.096,1.441h-11.144c-.907-.003-1.257-.589-.882-1.346l5.959-12.691h0Zm-2.894-7.503c.814-1.659,1.336-2.748,3.949-2.736,2.504-.01,3,.952,3.854,2.624l14.954,29.156c.925,1.812,.445,2.166-1.182,2.169h-4.47c-1.379-.001-1.725-.152-2.227-1.192l-1.25-2.568c-.42-.868-.78-1.045-2.595-1.046h-15.425c-1.195,.003-1.724,.278-2.085,1.08l-1.084,2.285c-.584,1.25-.955,1.44-2.295,1.441h-3.392c-1.193,0-1.62-.521-1.032-1.732l14.282-29.482h0Zm-24.589,5.351c1.238,.623,2.061,.704,2.535-.137l1.567-2.95c.536-.917,.228-1.603-.548-2.058-7.083-3.945-20.167-5.109-27.81-.549-9.549,5.835-10.749,19.957-3.563,26.48,7.451,7.3,20.852,6.415,31.261,2.898,1.907-.749,2.107-1.51,2.107-4.27v-9.947c.009-1.449-.925-2.401-2.381-2.419l-13.652,.017c-1.019-.002-1.505,.516-1.508,1.509v2.058c.006,.955,.572,1.435,1.696,1.441l7.918-.004c1.185,.003,1.685,.505,1.692,1.393v5.351c-8.621,3.276-17.86,2.315-21.651-2.435-4.919-6.718-1.635-16.602,5.173-18.094,6.087-1.486,11.809-.915,17.164,1.715h0Z" fill="#202020" fill-rule="evenodd"/>
      <path d="M213.767,1.163l-10.582,18.492c-1.302,1.998-.753,4.047,1.645,4.056l21.48-.026c2.918,.006,3.379-1.606,1.747-4.322L217.63,1.168c-.988-1.547-2.944-1.565-3.863-.004h0Z" fill="gray" fill-rule="evenodd"/>
    </g>
  </g>
</svg>