<?xml version="1.0" encoding="UTF-8"?>
<svg id="b" data-name="Layer 2" xmlns="http://www.w3.org/2000/svg" width="118.048" height="68.213" viewBox="0 0 118.048 68.213">
  <g id="c" data-name="Layer 1">
    <g>
      <path d="M4.091,34.107C4.091,17.529,28.685,4.091,59.023,4.091s54.934,13.438,54.934,30.016-24.594,30.015-54.934,30.015S4.091,50.683,4.091,34.107Z" fill="#424242"/>
      <path d="M0,34.107c0,19.125,25.926,34.106,59.023,34.106s59.025-14.981,59.025-34.106S92.121,0,59.023,0,0,14.981,0,34.107Z" fill="#424242"/>
      <path d="M4.091,34.107C4.091,17.529,28.685,4.091,59.023,4.091s54.934,13.438,54.934,30.016-24.594,30.015-54.934,30.015S4.091,50.683,4.091,34.107" fill="#595959"/>
      <path d="M26.466,52.458c0-1.865-2.226-1.573-2.226-2.324,0-.231,.194-.416,.653-.416,.362,0,.716,.062,1.06,.159l.087-1.422c-.37-.063-.785-.097-1.085-.097-1.574,0-2.483,.759-2.483,1.942,0,2.04,2.226,1.529,2.226,2.394,0,.274-.256,.442-.653,.442-.451,0-.946-.098-1.273-.213l-.088,1.502c.398,.089,.822,.124,1.228,.124,1.59,0,2.554-.901,2.554-2.093" fill="#424242"/>
      <path d="M32.332,50.479c0,.494-.38,.76-.804,.76-.026,0-.062,0-.124-.009v-1.458c.07-.009,.133-.009,.159-.009,.565,0,.769,.327,.769,.716m1.696-.053c0-1.316-.875-1.996-2.465-1.996-.654,0-1.254,.018-1.801,.044v5.962h1.642v-1.837c.114,.008,.212,.008,.247,.008,1.599,0,2.377-1.024,2.377-2.182Z" fill="#424242" fill-rule="evenodd"/>
      <path d="M41.036,51.432c0,1.263-.69,1.617-1.202,1.617-.795,0-1.123-.618-1.123-1.634,0-1.123,.584-1.564,1.157-1.564,.786,0,1.167,.539,1.167,1.581m1.749-.079c0-2.164-1.237-3.003-2.792-3.003-1.67,0-3.03,1.263-3.03,3.188,0,1.891,.919,3.022,2.791,3.022,1.696,0,3.03-1.264,3.03-3.207Z" fill="#424242" fill-rule="evenodd"/>
      <path d="M48.721,50.417c0,.442-.31,.68-.76,.68-.088,0-.212-.009-.274-.018v-1.282c.053-.008,.204-.017,.309-.017,.539,0,.725,.283,.725,.636m2.146,4.019l-1.069-1.82c-.133-.23-.274-.451-.433-.69,.688-.248,1.086-.926,1.086-1.634,0-1.324-.848-1.863-2.367-1.863-.751,0-1.484,.009-2.041,.044v5.962h1.643v-2.173h.062l1.123,2.173h1.996Z" fill="#424242" fill-rule="evenodd"/>
      <polyline points="57.6 49.887 57.6 48.474 53.378 48.474 53.378 49.887 54.668 49.887 54.668 54.436 56.31 54.436 56.31 49.887 57.6 49.887" fill="#424242"/>
      <path d="M64.572,52.458c0-1.865-2.227-1.573-2.227-2.324,0-.231,.195-.416,.655-.416,.362,0,.715,.062,1.06,.159l.088-1.422c-.371-.063-.786-.097-1.087-.097-1.571,0-2.482,.759-2.482,1.942,0,2.04,2.226,1.529,2.226,2.394,0,.274-.256,.442-.653,.442-.451,0-.946-.098-1.272-.213l-.089,1.502c.397,.089,.822,.124,1.228,.124,1.59,0,2.553-.901,2.553-2.093" fill="#424242"/>
      <path d="M27.713,29.721h-6.314s-.004-9.446-.004-10.354c0-1.395,.834-1.969,.834-1.969h-7.678s.847,.574,.847,1.97v23.672c0,1.399-.858,1.978-.858,1.978l7.69-.002s-.833-.577-.834-1.974c0-.906-.009-7.154-.001-10.993h6.319v10.993c0,1.396-.843,1.976-.843,1.976h7.689s-.848-.578-.848-1.978c0-.908,0-22.766,0-23.673,0-1.395,.869-1.969,.869-1.969h-7.699s.833,.574,.833,1.97c0,.906,0,10.353,0,10.353" fill="#fff"/>
      <path d="M41.825,35.523c-.01,4.058,.249,6.905,2.804,7.245,1.129,.15,2.773,.114,3.982-1.368,1.424-1.746,1.788-3.438,1.788-3.438h2.15c-.925,4.288-4.022,7.463-7.988,7.463-4.681,0-8.475-4.422-8.475-9.878s3.794-9.878,8.475-9.878,7.982,4.408,7.994,9.851v.009s-10.73-.005-10.73-.005" fill="#fff"/>
      <path d="M41.959,33.438c.12-3.25,.815-5.463,2.671-5.463,1.875,0,2.719,2.133,2.755,5.459l-5.425,.004" fill="#595959"/>
      <path d="M63.413,26.064c2.005-.006,3.132,.124,3.343,.175,1.645,.395,2.522,1.71,2.522,2.868,0,1.395-1.293,2.525-2.886,2.525s-2.886-1.13-2.886-2.525c0-.759,.382-1.442,.989-1.904,0,0-1.77-.546-2.996,.748-.579,.612-.59,1.396-.59,1.396,0,0,0,12.787,0,13.693,0,1.399,.829,1.98,.829,1.98h-7.656s.831-.581,.831-1.98v-15.002c0-1.399-.855-1.973-.855-1.973l9.357-.002" fill="#fff"/>
      <path d="M73.282,45.017l3.776-9.451c.363-.937-.635-1.318-.635-1.318h4.715s-1.065,.197-1.617,1.318l-6.441,16.324h-3.864l-5.409-16.329c-.321-.917-1.229-1.314-1.229-1.314h8.167c-1.042,.485-.619,1.318-.619,1.318l3.154,9.451" fill="#fff"/>
      <path d="M88.506,26.063h-7.441s.831,.576,.831,1.975v15.002c0,1.399-.831,1.976-.831,1.976h7.441s-.829-.578-.829-1.976v-15.002c0-1.399,.829-1.975,.829-1.975" fill="#fff"/>
      <path d="M81.894,22.025c0-1.394,1.292-2.525,2.886-2.525s2.886,1.131,2.886,2.525-1.292,2.525-2.886,2.525-2.886-1.13-2.886-2.525" fill="#fff"/>
      <path d="M94.375,36.434c1.527,.789,3.032,1.238,4.053,1.761,1.023,.532,1.685,1.42,1.685,2.423,0,1.63-1.76,2.951-3.933,2.951-.814,0-1.578-.201-2.206-.519,.759-.32,1.638-.977,1.638-2.249,0-1.394-1.292-2.525-2.886-2.525-1.201,0-2.23,.64-2.665,1.553,0,0-.337,.763-.154,1.519,.042,.172,.167,.544,.246,.706,.948,1.908,3.26,3.148,7.875,3.265,5.142-.116,8.62-2.651,8.62-5.859,0-1.408-.479-2.7-1.688-3.705-.806-.657-1.541-1.304-3.696-2.24-1.29-.561-2.577-.977-3.342-1.355-1.022-.443-1.723-1.326-1.723-2.342,0-1.461,1.439-2.644,3.216-2.644,.383,0,.751,.055,1.091,.157l-.198,.116c-.606,.463-.987,1.144-.987,1.904,0,1.396,1.291,2.526,2.886,2.526s2.886-1.13,2.886-2.526c0-.918-.646-1.823-1.669-2.432-1.325-.783-2.996-1.251-4.811-1.251-4.305,0-7.795,2.625-7.795,5.864,0,2.053,1.409,3.859,3.532,4.906h.026" fill="#fff"/>
    </g>
  </g>
</svg>