<?xml version="1.0" encoding="UTF-8"?>
<svg id="b" data-name="Layer 2" xmlns="http://www.w3.org/2000/svg" width="80.528" height="58.086" xmlns:xlink="http://www.w3.org/1999/xlink" viewBox="0 0 80.528 58.086">
  <defs>
    <clipPath id="d">
      <rect width="80.528" height="58.086" fill="none"/>
    </clipPath>
  </defs>
  <g id="c" data-name="Layer 1">
    <g clip-path="url(#d)">
      <polygon points="69.45 1.815 64.133 11.033 65.51 11.033 70.827 1.815 79.605 1.815 66.027 25.128 52.485 1.815 69.45 1.815 69.45 1.815" fill="#202020"/>
      <polygon points="37.74 1.815 32.423 11.033 33.8 11.033 39.117 1.815 45.716 1.815 40.399 11.033 41.775 11.033 47.093 1.815 50.593 1.815 50.593 25.128 27.546 25.128 27.546 1.815 37.74 1.815 37.74 1.815" fill="#202020"/>
      <path d="M17.314,1.967c4.724,1.683,8.109,6.216,8.109,11.494,0,6.732-5.489,12.221-12.221,12.221S.981,20.194,.981,13.462,6.47,1.24,13.203,1.24c1.013,0,1.989,.173,2.964,.383l-5.431,9.41h1.378L17.314,1.967h0Z" fill="#202020"/>
      <path d="M5.463,46.429c0-4.2,2.094-7.91,7.083-7.91s7.082,3.71,7.082,7.91c0,4.091-2.093,7.909-7.082,7.909s-7.083-3.818-7.083-7.909h0Zm-3.58,0c0,6.26,3.989,11.157,10.663,11.157s10.662-4.896,10.662-11.157-3.989-11.158-10.662-11.158S1.883,40.167,1.883,46.429h0Z" fill="#202020" fill-rule="evenodd"/>
      <polygon points="46.591 57.203 49.763 57.203 49.763 35.781 44.981 35.781 39.146 51.836 33.27 35.781 28.508 35.781 28.508 57.203 31.744 57.203 31.709 40.076 38.003 57.203 40.269 57.203 46.591 40.076 46.591 57.203 46.591 57.203" fill="#202020"/>
      <polygon points="73.72 35.78 66.158 52.077 58.614 35.78 54.641 35.78 64.546 57.2 67.522 57.2 77.623 35.78 73.72 35.78 73.72 35.78" fill="#202020"/>
      <polygon points="1.002 29.755 79.607 29.755 79.607 30.941 1.002 30.941 1.002 29.755 1.002 29.755" fill="#202020"/>
    </g>
  </g>
</svg>