<?xml version="1.0" encoding="UTF-8"?>
<svg id="b" data-name="Layer 2" xmlns="http://www.w3.org/2000/svg" width="60.179" height="72.217" xmlns:xlink="http://www.w3.org/1999/xlink" viewBox="0 0 60.179 72.217">
  <defs>
    <linearGradient id="d" x1="63.225" y1="726.143" x2="63.225" y2="708.622" gradientTransform="translate(-76.012 -1107.281) scale(1.581)" gradientUnits="userSpaceOnUse">
      <stop offset="0" stop-color="#666"/>
      <stop offset=".02" stop-color="#7f7f7f"/>
      <stop offset=".05" stop-color="#a6a6a6"/>
      <stop offset=".08" stop-color="#c2c2c2"/>
      <stop offset=".11" stop-color="#d3d3d3"/>
      <stop offset=".12" stop-color="#d9d9d9"/>
      <stop offset=".2" stop-color="#c9c9c9"/>
      <stop offset=".33" stop-color="#b0b0b0"/>
      <stop offset=".4" stop-color="#a7a7a7"/>
      <stop offset=".6" stop-color="#a7a7a7"/>
      <stop offset=".67" stop-color="#b0b0b0"/>
      <stop offset=".8" stop-color="#c9c9c9"/>
      <stop offset=".88" stop-color="#d9d9d9"/>
      <stop offset=".89" stop-color="#d3d3d3"/>
      <stop offset=".92" stop-color="#c2c2c2"/>
      <stop offset=".95" stop-color="#a6a6a6"/>
      <stop offset=".98" stop-color="#7f7f7f"/>
      <stop offset="1" stop-color="#666"/>
    </linearGradient>
    <linearGradient id="e" x1="67.433" y1="726.104" x2="67.433" y2="708.599" xlink:href="#d"/>
    <linearGradient id="f" x1="59.513" y1="726.186" x2="59.513" y2="708.648" xlink:href="#d"/>
    <linearGradient id="g" x1="70.424" y1="716.716" x2="75.533" y2="714.598" gradientTransform="translate(-76.012 -1107.281) scale(1.581)" gradientUnits="userSpaceOnUse">
      <stop offset="0" stop-color="#a7a7a7"/>
      <stop offset=".2" stop-color="#a7a7a7"/>
      <stop offset=".32" stop-color="#b0b0b0"/>
      <stop offset=".55" stop-color="#c9c9c9"/>
      <stop offset=".69" stop-color="#d9d9d9"/>
      <stop offset=".73" stop-color="#d3d3d3"/>
      <stop offset=".79" stop-color="#c2c2c2"/>
      <stop offset=".86" stop-color="#a6a6a6"/>
      <stop offset=".95" stop-color="#7f7f7f"/>
      <stop offset="1" stop-color="#666"/>
    </linearGradient>
    <linearGradient id="h" x1="69.308" y1="721.165" x2="76.933" y2="718.007" gradientTransform="translate(-76.012 -1107.281) scale(1.581)" gradientUnits="userSpaceOnUse">
      <stop offset="0" stop-color="#a7a7a7"/>
      <stop offset=".3" stop-color="#a7a7a7"/>
      <stop offset=".41" stop-color="#b0b0b0"/>
      <stop offset=".63" stop-color="#c9c9c9"/>
      <stop offset=".76" stop-color="#d9d9d9"/>
      <stop offset=".79" stop-color="#d3d3d3"/>
      <stop offset=".83" stop-color="#c2c2c2"/>
      <stop offset=".89" stop-color="#a6a6a6"/>
      <stop offset=".96" stop-color="#7f7f7f"/>
      <stop offset="1" stop-color="#666"/>
    </linearGradient>
    <linearGradient id="i" x1="68.178" y1="725.643" x2="78.3" y2="721.45" gradientTransform="translate(-76.012 -1107.281) scale(1.581)" gradientUnits="userSpaceOnUse">
      <stop offset="0" stop-color="#b6b6b6"/>
      <stop offset=".12" stop-color="#adadad"/>
      <stop offset=".24" stop-color="#a8a8a8"/>
      <stop offset=".4" stop-color="#a7a7a7"/>
      <stop offset=".5" stop-color="#b0b0b0"/>
      <stop offset=".69" stop-color="#c9c9c9"/>
      <stop offset=".81" stop-color="#d9d9d9"/>
      <stop offset=".83" stop-color="#d3d3d3"/>
      <stop offset=".87" stop-color="#c2c2c2"/>
      <stop offset=".92" stop-color="#a6a6a6"/>
      <stop offset=".97" stop-color="#7f7f7f"/>
      <stop offset="1" stop-color="#666"/>
    </linearGradient>
  </defs>
  <g id="c" data-name="Layer 1">
    <g>
      <path d="M2.408,0H57.772c.079,0,.157,.004,.236,.012,.078,.008,.156,.019,.234,.035,.077,.015,.154,.034,.229,.057,.075,.023,.15,.049,.222,.08,.073,.03,.144,.064,.214,.101,.069,.037,.137,.078,.203,.121,.066,.044,.129,.091,.19,.141,.061,.05,.119,.103,.175,.159,.056,.056,.109,.114,.159,.175,.05,.061,.097,.124,.141,.19,.044,.066,.084,.133,.121,.203,.037,.069,.071,.141,.101,.214,.03,.073,.057,.147,.08,.222,.023,.075,.042,.152,.057,.229,.015,.077,.027,.155,.035,.234,.008,.078,.011,.157,.011,.236V69.809c0,.079-.004,.158-.011,.236-.008,.079-.019,.156-.035,.234-.015,.077-.034,.154-.057,.229-.023,.076-.049,.15-.08,.223-.03,.073-.064,.144-.101,.213-.037,.07-.078,.137-.121,.203-.044,.066-.091,.129-.141,.19-.05,.061-.103,.119-.159,.175-.056,.056-.114,.109-.175,.159-.061,.05-.124,.097-.19,.141-.066,.044-.133,.084-.203,.121-.069,.037-.141,.071-.214,.101-.073,.03-.147,.057-.222,.08-.076,.023-.152,.042-.229,.057s-.155,.027-.234,.035c-.079,.008-.157,.012-.236,.012H2.408c-.079,0-.158-.004-.236-.012-.078-.008-.156-.019-.234-.035-.077-.015-.154-.034-.229-.057-.075-.023-.15-.049-.222-.08-.073-.03-.144-.064-.214-.101-.07-.037-.137-.078-.203-.121-.066-.044-.129-.091-.19-.141-.061-.05-.119-.103-.175-.159-.056-.056-.109-.114-.159-.175-.05-.061-.097-.124-.141-.19-.044-.066-.084-.133-.121-.203-.037-.069-.071-.141-.101-.213-.03-.073-.057-.147-.08-.223-.023-.075-.042-.152-.057-.229-.015-.077-.027-.155-.035-.234-.008-.078-.012-.157-.012-.236V2.408c0-.079,.004-.158,.012-.236,.008-.078,.019-.156,.035-.234,.015-.077,.035-.154,.057-.229,.023-.075,.049-.15,.08-.222,.03-.073,.064-.144,.101-.214,.037-.07,.078-.137,.121-.203,.044-.066,.091-.129,.141-.19,.05-.061,.103-.119,.159-.175,.056-.056,.114-.109,.175-.159,.061-.05,.124-.097,.19-.141,.066-.044,.133-.084,.203-.121,.069-.037,.141-.071,.214-.101,.073-.03,.147-.057,.222-.08,.075-.023,.152-.042,.229-.057,.077-.015,.155-.027,.234-.035,.078-.008,.157-.012,.236-.012Z" fill="#c2c2c2"/>
      <path d="M4.511,2.828H55.666c.107,0,.212,.01,.317,.031,.105,.021,.206,.052,.305,.092,.099,.041,.192,.091,.281,.15,.089,.059,.171,.127,.246,.202s.143,.157,.202,.246c.059,.089,.109,.182,.15,.281,.041,.099,.072,.2,.092,.305,.021,.105,.031,.21,.031,.317v63.311c0,.107-.011,.212-.031,.317-.021,.105-.052,.206-.092,.305-.041,.099-.091,.192-.15,.281-.059,.089-.127,.171-.202,.246s-.158,.143-.246,.202c-.089,.059-.182,.109-.281,.15-.098,.041-.2,.072-.305,.092-.105,.021-.21,.031-.317,.031H4.511c-.107,0-.212-.01-.317-.031-.105-.021-.206-.052-.305-.092-.099-.041-.192-.091-.281-.15-.089-.059-.171-.127-.246-.202-.075-.075-.143-.157-.202-.246-.059-.089-.109-.182-.15-.281-.041-.098-.072-.2-.092-.305-.021-.105-.031-.21-.031-.317V4.452c0-.107,.01-.212,.031-.317,.021-.105,.052-.206,.092-.305,.041-.098,.091-.192,.15-.281,.059-.089,.127-.171,.202-.246,.075-.075,.157-.143,.246-.202,.089-.059,.182-.109,.281-.15,.099-.041,.2-.072,.305-.092,.105-.021,.21-.031,.317-.031Z" fill="#939393"/>
      <path d="M6.229,4.904H53.952c.079,0,.157,.008,.235,.023,.078,.015,.153,.038,.226,.069,.073,.03,.142,.067,.208,.111,.066,.044,.127,.094,.182,.15,.056,.056,.106,.117,.15,.182,.044,.066,.081,.135,.111,.208,.03,.073,.053,.148,.068,.226,.015,.077,.023,.156,.023,.235v59.999c0,.079-.008,.157-.023,.235-.015,.078-.038,.153-.068,.226-.03,.073-.067,.142-.111,.208-.044,.066-.094,.127-.15,.182-.056,.056-.117,.106-.182,.15-.066,.044-.135,.081-.208,.111-.073,.03-.148,.053-.226,.068-.078,.015-.156,.023-.235,.023H6.229c-.079,0-.157-.008-.235-.023-.078-.015-.153-.038-.226-.068-.073-.03-.142-.067-.208-.111-.066-.044-.127-.094-.182-.15-.056-.056-.106-.117-.15-.182-.044-.066-.081-.135-.111-.208-.03-.073-.053-.148-.069-.226-.015-.078-.023-.156-.023-.235V6.108c0-.079,.008-.157,.023-.235,.015-.078,.038-.153,.069-.226,.03-.073,.067-.142,.111-.208,.044-.066,.094-.127,.15-.182,.056-.056,.117-.106,.182-.15,.066-.044,.135-.081,.208-.111,.073-.03,.148-.053,.226-.069,.077-.015,.156-.023,.235-.023Z" fill="#414141"/>
      <path d="M7.643,6.56H52.538c.059,0,.118,.006,.176,.017,.058,.012,.114,.029,.169,.051,.055,.023,.107,.05,.156,.083,.049,.033,.095,.07,.137,.112,.042,.042,.079,.087,.112,.137,.033,.049,.061,.101,.083,.156,.023,.055,.04,.111,.051,.169,.012,.058,.017,.117,.017,.176v57.292c0,.059-.006,.118-.017,.176-.012,.058-.029,.115-.051,.169-.023,.055-.05,.107-.083,.156-.033,.049-.07,.095-.112,.137-.042,.042-.087,.079-.137,.112-.049,.033-.101,.061-.156,.083-.055,.023-.111,.04-.169,.051-.058,.012-.117,.017-.176,.017H7.643c-.059,0-.118-.006-.176-.017-.058-.011-.115-.029-.169-.051-.055-.023-.107-.05-.156-.083-.049-.033-.095-.07-.137-.112-.042-.042-.079-.087-.112-.137-.033-.049-.061-.101-.083-.156-.023-.055-.04-.111-.051-.169-.012-.058-.017-.117-.017-.176V7.462c0-.059,.006-.118,.017-.176,.012-.058,.029-.115,.051-.169,.023-.055,.05-.107,.083-.156,.033-.049,.07-.095,.112-.137,.042-.042,.087-.079,.137-.112,.049-.033,.101-.061,.156-.083,.055-.023,.111-.04,.169-.051,.058-.012,.117-.017,.176-.017Z" fill="#0a0a0a"/>
      <path d="M28.302,55.163v-6.492c0-1.463,.777-2.348,2.193-2.348h3.881l-.408,1.885h-2.469c-.686,0-.894,.212-.894,.924v1.074h3.01v1.885h-3.017v3.07l-2.297,.002Zm-5.18-7.089c-1.274,0-1.471,1.025-1.471,2.683s.202,2.694,1.471,2.694,1.471-1.032,1.471-2.694-.2-2.675-1.471-2.675v-.008Zm0,7.263c-2.48,0-3.804-1.501-3.804-4.579s1.325-4.567,3.804-4.567,3.802,1.514,3.802,4.567-1.323,4.579-3.802,4.579h0Zm21.978-4.586h.849c.873,0,1.221-.359,1.221-1.312,0-.881-.319-1.231-1.221-1.231h-.849v2.543Zm2.484,4.412c-.231-.949-.943-2.219-1.503-2.611h-.981v2.611h-2.312v-8.84h3.422c2.091,0,3.212,.953,3.212,2.934,0,1.144-.331,1.964-1.182,2.596l-.036,.028,.034,.03c.637,.569,1.548,2.219,1.773,3.253h-2.427Zm-12.091,0v-8.84h5.768v1.885h-3.465v1.567h3.025v1.885h-3.025v1.616h3.55v1.887h-5.853Zm-19.852,0v-3.469h-2.439v3.469h-2.31v-8.84h2.31v3.405h2.439v-3.405h2.306v8.84h-2.306Z" fill="#fff"/>
      <path d="M28.799,13.129c-2.076,0-2.913,1.429-3.692,3.715l-7.08,20.835c-.618,1.79-1.378,2.87-2.667,3.03v.115h3.675c2.076,0,2.913-1.429,3.692-3.715l7.08-20.844c.607-1.79,1.448-2.872,2.739-3.03v-.115l-3.747,.008Z" fill="url(#d)"/>
      <path d="M35.455,13.088c-2.076,0-2.913,1.429-3.692,3.715l-7.076,20.823c-.607,1.79-1.378,2.877-2.666,3.03v.106h3.669c2.076,0,2.913-1.429,3.692-3.715l7.074-20.818c.607-1.79,1.448-2.872,2.739-3.03v-.115l-3.739,.004Z" fill="url(#e)"/>
      <path d="M22.145,13.163c-2.076,0-2.913,1.429-3.692,3.717l-8.163,24.011h2.081c2.076,0,2.913-1.429,3.692-3.715l7.078-20.863c.607-1.79,1.448-2.872,2.739-3.03v-.121h-3.734Z" fill="url(#f)"/>
      <path d="M43.31,22.831c-.771-1.571-1.601-1.771-3.051-1.771h-3.694l-1.458,4.305h7.244c1.042,0,1.885,.136,2.471,.915h.129s-1.461-3.07-1.641-3.45h0Z" fill="url(#g)"/>
      <path d="M45.934,29.03c-.724-1.518-1.594-1.766-3.053-1.766h-8.428l-1.459,4.295h11.919c1.061,0,1.866,.157,2.467,.945h.129s-1.393-3.093-1.575-3.473Z" fill="url(#h)"/>
      <path d="M48.63,35.454c-.756-1.698-1.698-1.945-3.151-1.945h-13.144l-1.208,3.558c-.088,.258-.176,.503-.265,.737h16.636c.97,0,1.768,.172,2.384,.972h.129s-1.295-3.142-1.382-3.323Z" fill="url(#i)"/>
    </g>
  </g>
</svg>