<svg xmlns="http://www.w3.org/2000/svg" xmlns:xlink="http://www.w3.org/1999/xlink" width="362" height="169" viewBox="0 0 362 169">
  <defs>
    <linearGradient id="linear-gradient" x1="0.5" x2="0.5" y2="1" gradientUnits="objectBoundingBox">
      <stop offset="0" stop-color="#f7f7f7"/>
      <stop offset="1" stop-color="#ebebeb"/>
    </linearGradient>
    <filter id="Rectangle_39" x="0" y="0" width="272" height="169" filterUnits="userSpaceOnUse">
      <feOffset dy="3" input="SourceAlpha"/>
      <feGaussianBlur stdDeviation="3" result="blur"/>
      <feFlood flood-opacity="0.161"/>
      <feComposite operator="in" in2="blur"/>
      <feComposite in="SourceGraphic"/>
    </filter>
    <filter id="Rectangle_45" x="234" y="40" width="99" height="129" filterUnits="userSpaceOnUse">
      <feOffset dy="3" input="SourceAlpha"/>
      <feGaussianBlur stdDeviation="3" result="blur-2"/>
      <feFlood flood-opacity="0.161"/>
      <feComposite operator="in" in2="blur-2"/>
      <feComposite in="SourceGraphic"/>
    </filter>
    <filter id="Rectangle_48" x="309" y="88" width="53" height="81" filterUnits="userSpaceOnUse">
      <feOffset dy="3" input="SourceAlpha"/>
      <feGaussianBlur stdDeviation="3" result="blur-3"/>
      <feFlood flood-opacity="0.161"/>
      <feComposite operator="in" in2="blur-3"/>
      <feComposite in="SourceGraphic"/>
    </filter>
    <linearGradient id="linear-gradient-4" x1="0.5" x2="0.5" y2="1" gradientUnits="objectBoundingBox">
      <stop offset="0" stop-color="#cfcfcf"/>
      <stop offset="1" stop-color="#b9b9b9"/>
    </linearGradient>
    <linearGradient id="linear-gradient-7" x1="0.5" x2="0.5" y2="1" gradientUnits="objectBoundingBox">
      <stop offset="0" stop-color="#cfcfcf"/>
      <stop offset="1" stop-color="#e9e9e9"/>
    </linearGradient>
    <linearGradient id="linear-gradient-9" x1="0.5" x2="0.5" y2="1" gradientUnits="objectBoundingBox">
      <stop offset="0" stop-color="#e9e9e9"/>
      <stop offset="1" stop-color="#cfcfcf"/>
    </linearGradient>
  </defs>
  <g id="Group_87" data-name="Group 87" transform="translate(-1281 -1056.049)">
    <g transform="matrix(1, 0, 0, 1, 1281, 1056.05)" filter="url(#Rectangle_39)">
      <g id="Rectangle_39-2" data-name="Rectangle 39" transform="translate(9 6)" stroke="#cfcfcf" stroke-width="0.5" fill="url(#linear-gradient)">
        <rect width="254" height="151" rx="2" stroke="none"/>
        <rect x="0.25" y="0.25" width="253.5" height="150.5" rx="1.75" fill="none"/>
      </g>
    </g>
    <g transform="matrix(1, 0, 0, 1, 1281, 1056.05)" filter="url(#Rectangle_45)">
      <g id="Rectangle_45-2" data-name="Rectangle 45" transform="translate(243 46)" stroke="#cfcfcf" stroke-width="0.5" fill="url(#linear-gradient)">
        <rect width="81" height="111" rx="2" stroke="none"/>
        <rect x="0.25" y="0.25" width="80.5" height="110.5" rx="1.75" fill="none"/>
      </g>
    </g>
    <g transform="matrix(1, 0, 0, 1, 1281, 1056.05)" filter="url(#Rectangle_48)">
      <g id="Rectangle_48-2" data-name="Rectangle 48" transform="translate(318 94)" stroke="#cfcfcf" stroke-width="0.5" fill="url(#linear-gradient)">
        <rect width="35" height="63" rx="2" stroke="none"/>
        <rect x="0.25" y="0.25" width="34.5" height="62.5" rx="1.75" fill="none"/>
      </g>
    </g>
    <line id="Line_60" data-name="Line 60" x2="252.362" transform="translate(1290.921 1073.973)" fill="none" stroke="#cfcfcf" stroke-width="0.5"/>
    <ellipse id="Ellipse_2" data-name="Ellipse 2" cx="3" cy="2.5" rx="3" ry="2.5" transform="translate(1297 1066.049)" fill="url(#linear-gradient-4)"/>
    <circle id="Ellipse_3" data-name="Ellipse 3" cx="2.5" cy="2.5" r="2.5" transform="translate(1307 1066.049)" fill="url(#linear-gradient-4)"/>
    <circle id="Ellipse_4" data-name="Ellipse 4" cx="2.5" cy="2.5" r="2.5" transform="translate(1316 1066.049)" fill="url(#linear-gradient-4)"/>
    <circle id="Ellipse_5" data-name="Ellipse 5" cx="2.5" cy="2.5" r="2.5" transform="translate(1563 1204.049)" fill="url(#linear-gradient-7)"/>
    <ellipse id="Ellipse_6" data-name="Ellipse 6" cx="2" cy="1.5" rx="2" ry="1.5" transform="translate(1616 1206.049)" fill="url(#linear-gradient-7)"/>
    <rect id="Rectangle_41" data-name="Rectangle 41" width="57" height="67" rx="1" transform="translate(1421 1102.049)" fill="url(#linear-gradient-9)"/>
    <rect id="Rectangle_46" data-name="Rectangle 46" width="57" height="61" rx="1" transform="translate(1537 1115.049)" fill="url(#linear-gradient-9)"/>
    <rect id="Rectangle_49" data-name="Rectangle 49" width="28" height="37" rx="1" transform="translate(1603 1154.049)" fill="url(#linear-gradient-9)"/>
    <rect id="Rectangle_50" data-name="Rectangle 50" width="28" height="11" rx="1" transform="translate(1603 1193.049)" fill="url(#linear-gradient-9)"/>
    <rect id="Rectangle_47" data-name="Rectangle 47" width="57" height="20" rx="1" transform="translate(1537 1180.049)" fill="url(#linear-gradient-9)"/>
    <path id="Rectangle_43" data-name="Rectangle 43" d="M1,0H56a1,1,0,0,1,1,1V37a0,0,0,0,1,0,0H0a0,0,0,0,1,0,0V1A1,1,0,0,1,1,0Z" transform="translate(1421 1176.049)" fill="url(#linear-gradient-9)"/>
    <rect id="Rectangle_42" data-name="Rectangle 42" width="57" height="67" rx="1" transform="translate(1356 1102.049)" fill="url(#linear-gradient-9)"/>
    <path id="Rectangle_44" data-name="Rectangle 44" d="M1,0H56a1,1,0,0,1,1,1V37a0,0,0,0,1,0,0H0a0,0,0,0,1,0,0V1A1,1,0,0,1,1,0Z" transform="translate(1356 1176.049)" fill="url(#linear-gradient-9)"/>
  </g>
</svg>
