<svg xmlns="http://www.w3.org/2000/svg" width="76.206" height="14.427" viewBox="0 0 76.206 14.427">
  <g id="Group_86" data-name="Group 86" transform="translate(-313.421 -285)">
    <path id="Path_1" data-name="Path 1" d="M333.878,285l-2.325,13.187a1.5,1.5,0,0,1-1.478,1.24h-7.146l-.655-3.489L320.9,288.6h-1.666l-1.909,10.825h-3.9l2.325-13.187a1.5,1.5,0,0,1,1.478-1.24h7.149l.653,3.48,1.378,7.345h1.664L329.977,285Z" transform="translate(0 -0.001)" fill="#111"/>
    <path id="Path_2" data-name="Path 2" d="M695.93,285h-13.7a2.7,2.7,0,0,0-2.66,2.232l-2.15,12.195h3.9l.478-2.712h10.111l-.478,2.712h3.9l2.205-12.506A1.637,1.637,0,0,0,695.93,285Zm-13.492,8.114.8-4.513h10.111l-.8,4.513Z" transform="translate(-307.94 0)" fill="#111"/>
    <path id="Path_3" data-name="Path 3" d="M439.614,287.232l-1.591,9.025a2.7,2.7,0,0,0,2.66,3.17h12.428a2.7,2.7,0,0,0,2.66-2.232l1.591-9.025A2.7,2.7,0,0,0,454.7,285H442.274A2.7,2.7,0,0,0,439.614,287.232ZM442,295.826l1.274-7.225h10.111l-1.274,7.225Z" transform="translate(-105.371 0)" fill="#111"/>
    <path id="Path_4" data-name="Path 4" d="M579.264,285l-2.15,12.195a2.7,2.7,0,0,1-2.66,2.232h-5.591l-.452-2.406h-.4l-1.3,2.406h-4.681a2.7,2.7,0,0,1-2.66-3.17L561.351,285h3.9l-1.909,10.825h1.732l1.727-3.2h4.32l.6,3.2h1.732L575.363,285Z" transform="translate(-208.027 -0.001)" fill="#111"/>
  </g>
</svg>
