<svg xmlns="http://www.w3.org/2000/svg" width="2294.421" height="427.632" viewBox="0 0 2294.421 427.632">
  <g id="Group_86" data-name="Group 86" transform="translate(-313.421 -285)">
    <path id="Path_1" data-name="Path 1" d="M919.794,285,850.869,675.874a44.469,44.469,0,0,1-43.8,36.749H595.237l-19.4-103.429-40.81-217.453H485.638L429.059,712.623H313.421L382.344,321.75A44.473,44.473,0,0,1,426.144,285h211.9l19.365,103.164L698.26,605.884h49.316L804.157,285Z" transform="translate(0 0.004)" fill="#111"/>
    <path id="Path_2" data-name="Path 2" d="M1225.983,285H820a80.057,80.057,0,0,0-78.842,66.153L677.423,712.632H793.061l14.171-80.376h299.707l-14.175,80.376H1208.4l65.366-370.693A48.521,48.521,0,0,0,1225.983,285ZM826.055,525.516l23.583-133.776h299.709l-23.59,133.776Z" transform="translate(1333.326)" fill="#111"/>
    <path id="Path_3" data-name="Path 3" d="M486.39,351.153,439.22,618.672a80.056,80.056,0,0,0,78.841,93.96H886.454a80.058,80.058,0,0,0,78.841-66.154l47.17-267.52A80.058,80.058,0,0,0,933.624,285H565.232A80.057,80.057,0,0,0,486.39,351.153Zm70.719,254.738L594.87,391.739h299.7L856.817,605.891Z" transform="translate(456.261)" fill="#111"/>
    <path id="Path_4" data-name="Path 4" d="M1150.367,285,1086.63,646.469a80.058,80.058,0,0,1-78.842,66.154H842.071l-13.4-71.32H816.7l-38.53,71.32H639.4a80.053,80.053,0,0,1-78.839-93.959L619.4,285H735.032l-56.58,320.883h51.342l51.182-94.733H909.029l17.776,94.733H978.15L1034.73,285Z" transform="translate(900.736 0.004)" fill="#111"/>
  </g>
</svg>
