<svg xmlns="http://www.w3.org/2000/svg" xmlns:xlink="http://www.w3.org/1999/xlink" width="314" height="212" viewBox="0 0 314 212">
  <defs>
    <linearGradient id="linear-gradient" x1="0.5" x2="0.5" y2="1" gradientUnits="objectBoundingBox">
      <stop offset="0" stop-color="#f7f7f7"/>
      <stop offset="1" stop-color="#ebebeb"/>
    </linearGradient>
    <filter id="Rectangle_26" x="62" y="0" width="145" height="212" filterUnits="userSpaceOnUse">
      <feOffset dy="3" input="SourceAlpha"/>
      <feGaussianBlur stdDeviation="3" result="blur"/>
      <feFlood flood-opacity="0.161"/>
      <feComposite operator="in" in2="blur"/>
      <feComposite in="SourceGraphic"/>
    </filter>
    <filter id="Rectangle_25" x="0" y="155" width="87" height="57" filterUnits="userSpaceOnUse">
      <feOffset dy="3" input="SourceAlpha"/>
      <feGaussianBlur stdDeviation="3" result="blur-2"/>
      <feFlood flood-opacity="0.161"/>
      <feComposite operator="in" in2="blur-2"/>
      <feComposite in="SourceGraphic"/>
    </filter>
    <filter id="Rectangle_37" x="167" y="132" width="147" height="80" filterUnits="userSpaceOnUse">
      <feOffset dy="3" input="SourceAlpha"/>
      <feGaussianBlur stdDeviation="3" result="blur-3"/>
      <feFlood flood-opacity="0.161"/>
      <feComposite operator="in" in2="blur-3"/>
      <feComposite in="SourceGraphic"/>
    </filter>
  </defs>
  <g id="Group_88" data-name="Group 88" transform="translate(-411.558 -1343.236)">
    <g transform="matrix(1, 0, 0, 1, 411.56, 1343.24)" filter="url(#Rectangle_26)">
      <g id="Rectangle_26-2" data-name="Rectangle 26" transform="translate(71 6)" stroke="#cfcfcf" stroke-width="0.5" fill="url(#linear-gradient)">
        <rect width="127" height="194" rx="2" stroke="none"/>
        <rect x="0.25" y="0.25" width="126.5" height="193.5" rx="1.75" fill="none"/>
      </g>
    </g>
    <rect id="Rectangle_28" data-name="Rectangle 28" width="47" height="7" rx="1" transform="translate(526.558 1360.236)" fill="#cfcfcf"/>
    <rect id="Rectangle_29" data-name="Rectangle 29" width="107" height="1" rx="0.5" transform="translate(494.557 1394.236)" fill="#cfcfcf"/>
    <rect id="Rectangle_30" data-name="Rectangle 30" width="107" height="1" rx="0.5" transform="translate(494.557 1397.236)" fill="#cfcfcf"/>
    <rect id="Rectangle_31" data-name="Rectangle 31" width="51" height="1" rx="0.5" transform="translate(494.557 1400.236)" fill="#cfcfcf"/>
    <rect id="Rectangle_32" data-name="Rectangle 32" width="20" height="2" rx="1" transform="translate(500.557 1537.236)" fill="#cfcfcf"/>
    <g id="Group_72" data-name="Group 72" transform="translate(420.445 1504.423)">
      <g transform="matrix(1, 0, 0, 1, -8.89, -161.19)" filter="url(#Rectangle_25)">
        <g id="Rectangle_25-2" data-name="Rectangle 25" transform="translate(78 200) rotate(180)" stroke="#cfcfcf" stroke-width="0.5" fill="url(#linear-gradient)">
          <rect width="69" height="39" rx="2" stroke="none"/>
          <rect x="0.25" y="0.25" width="68.5" height="38.5" rx="1.75" fill="none"/>
        </g>
      </g>
      <rect id="Rectangle_35" data-name="Rectangle 35" width="21" height="4" rx="1" transform="translate(6.113 4.813)" fill="#cfcfcf"/>
      <rect id="Rectangle_36" data-name="Rectangle 36" width="11" height="1" rx="0.5" transform="translate(6.113 11.813)" fill="#cfcfcf"/>
    </g>
    <rect id="Rectangle_33" data-name="Rectangle 33" width="21" height="2" rx="1" transform="translate(535.557 1537.236)" fill="#cfcfcf"/>
    <rect id="Rectangle_34" data-name="Rectangle 34" width="21" height="2" rx="1" transform="translate(572.558 1537.236)" fill="#cfcfcf"/>
    <g id="Group_71" data-name="Group 71" transform="translate(587.953 1481.501)">
      <g transform="matrix(1, 0, 0, 1, -176.4, -138.26)" filter="url(#Rectangle_37)">
        <g id="Rectangle_37-2" data-name="Rectangle 37" transform="translate(305 200) rotate(180)" stroke="#cfcfcf" stroke-width="0.5" fill="url(#linear-gradient)">
          <rect width="129" height="62" rx="2" stroke="none"/>
          <rect x="0.25" y="0.25" width="128.5" height="61.5" rx="1.75" fill="none"/>
        </g>
      </g>
      <rect id="Rectangle_38" data-name="Rectangle 38" width="34" height="13" rx="1" transform="translate(9.604 41.735)" fill="#cfcfcf"/>
    </g>
  </g>
</svg>
